<svg width="77" height="16" viewBox="0 0 77 16" fill="none" xmlns="http://www.w3.org/2000/svg">
<path d="M6.68874 2.5368C5.69213 2.5368 4.84578 3.23619 4.13751 4.30598C3.13603 5.81767 2.5228 8.06935 2.5228 10.2317C2.5228 11.1236 2.71854 11.8084 2.9744 12.2226L0.823604 13.6393C0.271286 12.7206 0 11.5151 0 10.1415C0 7.64371 0.685525 5.0403 1.98916 3.02987C3.14578 1.24687 4.81492 0 6.72935 0L6.68874 2.5368Z" fill="white"/>
<path d="M2.5228 10.2317C2.5228 11.1236 2.71854 11.8084 2.9744 12.2226C3.30985 12.7652 3.81018 12.9951 4.32027 12.9951C4.97818 12.9951 5.58004 12.8318 6.73991 11.2276C7.6691 9.9417 8.76399 8.13677 9.50069 7.00524L10.7483 5.08822C11.6149 3.75687 12.618 2.27687 13.7682 1.27368C14.7071 0.454886 15.72 0 16.7393 0C18.4507 0 20.0808 0.991814 21.3284 2.85197C22.6938 4.88921 23.3566 7.45526 23.3566 10.1033C23.3566 11.6776 23.0463 12.8343 22.5183 13.7481C22.0083 14.6319 21.0141 15.5149 19.3417 15.5149V12.9951C20.7737 12.9951 21.1311 11.6792 21.1311 10.1732C21.1311 8.02711 20.6307 5.64546 19.5285 3.9437C18.7463 2.73663 17.7327 1.99906 16.6175 1.99906C15.4113 1.99906 14.4407 2.90883 13.3499 4.53099C12.7699 5.39284 12.1746 6.44314 11.5061 7.62828L10.7702 8.93201C9.29195 11.5533 8.91751 12.1503 8.17837 13.1356C6.88286 14.861 5.7766 15.5149 4.32027 15.5149C2.59265 15.5149 1.50019 14.7667 0.823604 13.6393C0.271286 12.7206 0 11.5151 0 10.1415L2.5228 10.2317Z" fill="white"/>
<path d="M1.99023 3.02987C3.14685 1.24687 4.81599 0 6.73043 0C7.83912 0 8.94132 0.328168 10.0923 1.26799C11.3512 2.29555 12.693 3.98756 14.367 6.77618L14.9673 7.77693C16.4163 10.1911 17.2407 11.4331 17.7232 12.0187C18.3437 12.7709 18.7783 12.9951 19.3428 12.9951C20.7747 12.9951 21.1321 11.6792 21.1321 10.1732L23.3576 10.1033C23.3576 11.6776 23.0474 12.8343 22.5194 13.7481C22.0093 14.6319 21.0152 15.5149 19.3428 15.5149C18.3031 15.5149 17.382 15.289 16.3635 14.3281C15.5805 13.5905 14.6651 12.2803 13.9609 11.1025L11.8662 7.60309C10.8151 5.84691 9.85103 4.53749 9.29302 3.94451C8.69278 3.30686 7.92116 2.5368 6.68981 2.5368C5.6932 2.5368 4.84686 3.23619 4.13859 4.30598L1.99023 3.02987Z" fill="white"/>
<path d="M28.2598 0.490723H31.1781L36.14 9.46822L41.1028 0.490723H43.9578V15.242H41.5771V3.93648L37.2252 11.7654H34.9916L30.6404 3.93648V15.242H28.2598V0.490723ZM51.4173 5.99078C49.71 5.99078 48.6817 7.27584 48.4356 8.86712H54.2301C54.1107 7.22791 53.1653 5.99078 51.4173 5.99078ZM46.0753 9.77365C46.0753 6.42536 48.2391 3.98847 51.4588 3.98847C54.6257 3.98847 56.5165 6.39449 56.5165 9.95235V10.6063H48.4356C48.7223 12.3373 49.8708 13.5037 51.7227 13.5037C53.2002 13.5037 54.1237 13.0529 54.9993 12.2284L56.2639 13.7775C55.0724 14.8732 53.5568 15.5052 51.6383 15.5052C48.153 15.5052 46.0753 12.9635 46.0753 9.77365ZM59.4032 6.20198H57.2118V4.25247H59.4032V1.02846H61.7002V4.25247H65.0295V6.20198H61.7002V11.1432C61.7002 12.8303 62.2395 13.4298 63.5651 13.4298C64.1702 13.4298 64.517 13.3778 65.0295 13.2925V15.2209C64.3911 15.4012 63.782 15.4841 63.1224 15.4841C60.6427 15.4841 59.4032 14.1292 59.4032 11.4169V6.20198ZM74.7016 8.09788C74.2403 6.93305 73.2112 6.07526 71.6988 6.07526C69.7332 6.07526 68.475 7.46997 68.475 9.74197C68.475 11.9571 69.6333 13.4192 71.6046 13.4192C73.1543 13.4192 74.2606 12.5176 74.7016 11.3958V8.09788ZM76.9986 15.242H74.7438V13.7035C74.1136 14.6092 72.9667 15.5052 71.1091 15.5052C68.1217 15.5052 66.1252 13.0041 66.1252 9.74197C66.1252 6.44892 68.1696 3.98847 71.2358 3.98847C72.7514 3.98847 73.9405 4.59444 74.7438 5.66424V4.25247H76.9986V15.242Z" fill="white"/>
</svg>
